<svg width="65" height="64" viewBox="0 0 65 64" fill="none" xmlns="http://www.w3.org/2000/svg">
<rect x="0.333252" width="64" height="64" rx="16" fill="#F9FBFD"/>
<path d="M42.3333 14H14.3333V42H25.3333V38H18.3333V18H38.3333V25H42.3333V14Z" fill="#2A2B38"/>
<path fill-rule="evenodd" clip-rule="evenodd" d="M28.3333 38C28.3333 32.4772 32.8104 28 38.3333 28C43.8561 28 48.3333 32.4772 48.3333 38C48.3333 40.0382 47.7235 41.9339 46.6765 43.5148L54.7475 51.5858L51.9191 54.4142L43.848 46.3432C42.2672 47.3902 40.3714 48 38.3333 48C32.8104 48 28.3333 43.5228 28.3333 38ZM38.3333 32C35.0195 32 32.3333 34.6863 32.3333 38C32.3333 41.3137 35.0195 44 38.3333 44C41.647 44 44.3333 41.3137 44.3333 38C44.3333 34.6863 41.647 32 38.3333 32Z" fill="#2A2B38"/>
</svg>
