<svg width="64" height="64" viewBox="0 0 64 64" fill="none" xmlns="http://www.w3.org/2000/svg">
<rect width="64" height="64" rx="16" fill="#F9FBFD"/>
<path fill-rule="evenodd" clip-rule="evenodd" d="M13.6364 20C13.6364 16.4855 16.4855 13.6364 20 13.6364C22.8159 13.6364 25.2045 15.4653 26.043 18H18V26.043C15.4653 25.2045 13.6364 22.8159 13.6364 20ZM18 29.8C13.4355 28.8734 10 24.8379 10 20C10 14.4772 14.4772 10 20 10C24.8379 10 28.8734 13.4355 29.8 18H34.2C35.1266 13.4355 39.1621 10 44 10C49.5228 10 54 14.4772 54 20C54 24.8379 50.5645 28.8734 46 29.8V34.2C50.5645 35.1266 54 39.1621 54 44C54 49.5228 49.5228 54 44 54C39.1621 54 35.1266 50.5645 34.2 46H29.8C28.8734 50.5645 24.8379 54 20 54C14.4772 54 10 49.5228 10 44C10 39.1621 13.4355 35.1266 18 34.2V29.8ZM22 34.2V29.8C25.9183 29.0046 29.0046 25.9183 29.8 22H34.2C34.9954 25.9183 38.0817 29.0046 42 29.8V34.2C38.0817 34.9954 34.9954 38.0817 34.2 42H29.8C29.0046 38.0817 25.9183 34.9954 22 34.2ZM18 37.957C15.4653 38.7955 13.6364 41.1841 13.6364 44C13.6364 47.5145 16.4855 50.3636 20 50.3636C22.8159 50.3636 25.2045 48.5347 26.043 46H18V37.957ZM26.043 42H22V37.957C23.9058 38.5874 25.4126 40.0942 26.043 42ZM37.957 46C38.7955 48.5347 41.1841 50.3636 44 50.3636C47.5145 50.3636 50.3636 47.5145 50.3636 44C50.3636 41.1841 48.5347 38.7955 46 37.957V46H37.957ZM42 37.957V42H37.957C38.5874 40.0942 40.0942 38.5874 42 37.957ZM46 26.043C48.5347 25.2045 50.3636 22.8159 50.3636 20C50.3636 16.4855 47.5145 13.6364 44 13.6364C41.1841 13.6364 38.7955 15.4653 37.957 18H46V26.043ZM37.957 22H42V26.043C40.0942 25.4126 38.5874 23.9058 37.957 22ZM26.043 22C25.4126 23.9058 23.9058 25.4126 22 26.043V22H26.043Z" fill="#2A2B38"/>
</svg>
