<svg width="48" height="48" viewBox="0 0 48 48" fill="none" xmlns="http://www.w3.org/2000/svg">
    <path d="M24 48C37.2548 48 48 37.2548 48 24V8C48 3.58172 44.4183 0 40 0H8C3.58172 0 0 3.58172 0 8V24C0 37.2548 10.7452 48 24 48Z"
          fill="#FFE5E5"/>
    <path fill-rule="evenodd" clip-rule="evenodd"
          d="M27.5742 14.4H32.4V19.2258C33.9208 18.7227 35.0182 17.2895 35.0182 15.6C35.0182 13.4913 33.3087 11.7818 31.2 11.7818C29.5105 11.7818 28.0773 12.8792 27.5742 14.4ZM32.4 21.48C35.1387 20.9241 37.2 18.5028 37.2 15.6C37.2 12.2863 34.5137 9.6 31.2 9.6C28.2973 9.6 25.8759 11.6613 25.32 14.4H22.68C22.124 11.6613 19.7027 9.60001 16.8 9.60001C13.4863 9.60001 10.8 12.2863 10.8 15.6C10.8 18.5028 12.8613 20.9241 15.6 21.48V24.12C12.8613 24.6759 10.8 27.0972 10.8 30C10.8 33.3137 13.4863 36 16.8 36C19.7028 36 22.1241 33.9387 22.68 31.2H25.32C25.8759 33.9387 28.2973 36 31.2 36C34.5137 36 37.2 33.3137 37.2 30C37.2 27.0972 35.1387 24.6759 32.4 24.12V21.48ZM30 19.2258C28.8565 18.8476 27.9524 17.9435 27.5742 16.8H30V19.2258ZM30 21.48V24.12C27.649 24.5972 25.7972 26.449 25.32 28.8H22.68C22.2028 26.449 20.351 24.5972 18 24.12V21.48C20.351 21.0028 22.2028 19.151 22.68 16.8H25.32C25.7972 19.151 27.649 21.0028 30 21.48ZM20.4258 14.4H15.6V19.2258C14.0792 18.7227 12.9818 17.2895 12.9818 15.6C12.9818 13.4913 14.6913 11.7818 16.8 11.7818C18.4895 11.7818 19.9227 12.8792 20.4258 14.4ZM18 19.2258C19.1435 18.8476 20.0475 17.9435 20.4258 16.8H18V19.2258ZM15.6 26.3742C14.0792 26.8773 12.9818 28.3105 12.9818 30C12.9818 32.1087 14.6913 33.8182 16.8 33.8182C18.4895 33.8182 19.9227 32.7208 20.4258 31.2H15.6V26.3742ZM20.4258 28.8H18V26.3742C19.1435 26.7524 20.0476 27.6565 20.4258 28.8ZM27.5742 31.2C28.0773 32.7208 29.5105 33.8182 31.2 33.8182C33.3087 33.8182 35.0182 32.1087 35.0182 30C35.0182 28.3105 33.9208 26.8773 32.4 26.3742V31.2H27.5742ZM30 26.3742V28.8H27.5742C27.9524 27.6565 28.8565 26.7524 30 26.3742Z"
          fill="#202874"/>
</svg>
