<svg width="44" height="44" viewBox="0 0 44 44" fill="none" xmlns="http://www.w3.org/2000/svg">
<path fill-rule="evenodd" clip-rule="evenodd" d="M3.63636 10C3.63636 6.48546 6.48546 3.63636 10 3.63636C12.8159 3.63636 15.2045 5.46527 16.043 8H8V16.043C5.46527 15.2045 3.63636 12.8159 3.63636 10ZM8 19.8C3.43552 18.8734 0 14.8379 0 10C0 4.47715 4.47715 0 10 0C14.8379 0 18.8734 3.43552 19.8 8H24.2C25.1266 3.43552 29.1621 0 34 0C39.5228 0 44 4.47715 44 10C44 14.8379 40.5645 18.8734 36 19.8V24.2C40.5645 25.1266 44 29.1621 44 34C44 39.5228 39.5228 44 34 44C29.1621 44 25.1266 40.5645 24.2 36H19.8C18.8734 40.5645 14.8379 44 10 44C4.47715 44 0 39.5228 0 34C0 29.1621 3.43552 25.1266 8 24.2V19.8ZM12 24.2V19.8C15.9183 19.0046 19.0046 15.9183 19.8 12H24.2C24.9954 15.9183 28.0817 19.0046 32 19.8V24.2C28.0817 24.9954 24.9954 28.0817 24.2 32H19.8C19.0046 28.0817 15.9183 24.9954 12 24.2ZM8 27.957C5.46527 28.7955 3.63636 31.1841 3.63636 34C3.63636 37.5145 6.48546 40.3636 10 40.3636C12.8159 40.3636 15.2045 38.5347 16.043 36H8V27.957ZM16.043 32H12V27.957C13.9058 28.5874 15.4126 30.0942 16.043 32ZM27.957 36C28.7955 38.5347 31.1841 40.3636 34 40.3636C37.5145 40.3636 40.3636 37.5145 40.3636 34C40.3636 31.1841 38.5347 28.7955 36 27.957V36H27.957ZM32 27.957V32H27.957C28.5874 30.0942 30.0942 28.5874 32 27.957ZM36 16.043C38.5347 15.2045 40.3636 12.8159 40.3636 10C40.3636 6.48546 37.5145 3.63636 34 3.63636C31.1841 3.63636 28.7955 5.46527 27.957 8H36V16.043ZM27.957 12H32V16.043C30.0942 15.4126 28.5874 13.9058 27.957 12ZM16.043 12C15.4126 13.9058 13.9058 15.4126 12 16.043V12H16.043Z" fill="white"/>
</svg>
