<svg width="65" height="64" viewBox="0 0 65 64" fill="none" xmlns="http://www.w3.org/2000/svg">
<rect x="0.666504" width="64" height="64" rx="16" fill="#F9FBFD"/>
<path d="M18.6665 18V16H16.6665V18H18.6665ZM46.6665 18H48.6665V16H46.6665V18ZM18.6665 20H46.6665V16H18.6665V20ZM20.6665 36V18H16.6665V36H20.6665ZM32.6665 48C26.0391 48 20.6665 42.6274 20.6665 36H16.6665C16.6665 44.8366 23.8299 52 32.6665 52V48ZM44.6665 36C44.6665 42.6274 39.2939 48 32.6665 48V52C41.5031 52 48.6665 44.8366 48.6665 36H44.6665ZM44.6665 18V36H48.6665V18H44.6665Z" fill="#2A2B38"/>
</svg>
